#Comment line ignore any data following # character 
#Hierarchical Translation and Rotation (.htr) file 
[Header]	
#Header keywords are followed by a single value 
FileType HTR		#Single word string
DataType HTRS		#Translation followed by rotation and scale data
FileVersion 1		#integer
NumSegments 84		#integer
NumFrames 2		#integer
DataFrameRate 30		#integer, data frame rate in this file
EulerRotationOrder ZYX
CalibrationUnits mm
RotationUnits Degrees
GlobalAxisofGravity Y
BoneLengthAxis Y
ScaleFactor 1.00
[SegmentNames&Hierarchy]
#CHILD	PARENT
MASTER GLOBAL
root MASTER
chest root
L_mid_tent01 root
R_mid_tent01 root
spine01 root
Bip01_Neck chest
L_humerus chest
R_humerus chest
weapon_bone chest
Bip01_Head Bip01_Neck
eye_left_bone Bip01_Head
eye_right_bone Bip01_Head
L_forearm L_humerus
L_front_hand L_forearm
L_weapon_bone L_forearm
L_front_hand01_01 L_front_hand
L_front_hand02_01 L_front_hand
L_front_hand03_01 L_front_hand
L_front_hand01_02 L_front_hand01_01
L_front_hand02_02 L_front_hand02_01
L_front_hand03_02 L_front_hand03_01
R_forearm R_humerus
R_front_hand R_forearm
R_weapon_bone R_forearm
R_front_hand01_01 R_front_hand
R_front_hand02_01 R_front_hand
R_front_hand03_01 R_front_hand
R_front_hand01_02 R_front_hand01_01
R_front_hand02_02 R_front_hand02_01
R_front_hand03_02 R_front_hand03_01
null_rope01_connect L_mid_tent01
Rope1_Seg01 null_rope01_connect
Rope1_Seg02 Rope1_Seg01
Rope1_Seg03 Rope1_Seg02
Rope1_Seg04 Rope1_Seg03
Rope1_Seg05 Rope1_Seg04
Rope1_Seg06 Rope1_Seg05
Rope1_Seg07 Rope1_Seg06
Rope1_Seg09 Rope1_Seg07
L_mid_hand01 Rope1_Seg09
L_mid_hand02 Rope1_Seg09
L_mid_hand03 Rope1_Seg09
null_rope02_connect R_mid_tent01
Rope2_Seg01 null_rope02_connect
Rope2_Seg02 Rope2_Seg01
Rope2_Seg03 Rope2_Seg02
Rope2_Seg04 Rope2_Seg03
Rope2_Seg05 Rope2_Seg04
Rope2_Seg06 Rope2_Seg05
Rope2_Seg07 Rope2_Seg06
Rope2_Seg09 Rope2_Seg07
R_mid_hand01 Rope2_Seg09
R_mid_hand02 Rope2_Seg09
R_mid_hand03 Rope2_Seg09
spine02 spine01
spine03 spine02
pelvis spine03
null_rope03_connect pelvis
null_rope04_connect pelvis
Rope3_Seg01 null_rope03_connect
Rope3_Seg02 Rope3_Seg01
Rope3_Seg03 Rope3_Seg02
Rope3_Seg04 Rope3_Seg03
Rope3_Seg05 Rope3_Seg04
Rope3_Seg06 Rope3_Seg05
Rope3_Seg07 Rope3_Seg06
Rope3_Seg08 Rope3_Seg07
Rope3_Seg09 Rope3_Seg08
R_rear_hand01 Rope3_Seg09
R_rear_hand02 Rope3_Seg09
R_rear_hand03 Rope3_Seg09
Rope4_Seg01 null_rope04_connect
Rope4_Seg02 Rope4_Seg01
Rope4_Seg03 Rope4_Seg02
Rope4_Seg04 Rope4_Seg03
Rope4_Seg05 Rope4_Seg04
Rope4_Seg06 Rope4_Seg05
Rope4_Seg07 Rope4_Seg06
Rope4_Seg08 Rope4_Seg07
Rope4_Seg09 Rope4_Seg08
L_rear_hand01 Rope4_Seg09
L_rear_hand02 Rope4_Seg09
L_rear_hand03 Rope4_Seg09
[BasePosition]
#SegmentName Tx, Ty, Tz, Rx, Ry, Rz, BoneLength
MASTER 0.000000 0.000000 0.000000 -90.000000 0.000000 0.000000 10.000000 
root 0.000000 0.000000 0.000000 0.000000 0.000000 0.000000 10.000000 
chest 0.000000 0.000000 0.000000 0.000000 0.000000 0.000000 10.000000 
L_mid_tent01 0.000000 0.000000 0.000000 0.000000 0.000000 0.000000 10.000000 
R_mid_tent01 0.000000 0.000000 0.000000 0.000000 0.000000 0.000000 10.000000 
spine01 0.000000 0.000000 0.000000 0.000000 0.000000 0.000000 10.000000 
Bip01_Neck 0.000000 0.000000 0.000000 0.000000 0.000000 0.000000 10.000000 
L_humerus 0.000000 0.000000 0.000000 0.000000 0.000000 0.000000 10.000000 
R_humerus 0.000000 0.000000 0.000000 0.000000 0.000000 0.000000 10.000000 
weapon_bone 0.000000 0.000000 0.000000 0.000000 0.000000 0.000000 10.000000 
Bip01_Head 0.000000 0.000000 0.000000 0.000000 0.000000 0.000000 10.000000 
eye_left_bone 0.000000 0.000000 0.000000 0.000000 0.000000 0.000000 10.000000 
eye_right_bone 0.000000 0.000000 0.000000 0.000000 0.000000 0.000000 10.000000 
L_forearm 0.000000 0.000000 0.000000 0.000000 0.000000 0.000000 10.000000 
L_front_hand 0.000000 0.000000 0.000000 0.000000 0.000000 0.000000 10.000000 
L_weapon_bone 0.000000 0.000000 0.000000 0.000000 0.000000 0.000000 10.000000 
L_front_hand01_01 0.000000 0.000000 0.000000 0.000000 0.000000 0.000000 10.000000 
L_front_hand02_01 0.000000 0.000000 0.000000 0.000000 0.000000 0.000000 10.000000 
L_front_hand03_01 0.000000 0.000000 0.000000 0.000000 0.000000 0.000000 10.000000 
L_front_hand01_02 0.000000 0.000000 0.000000 0.000000 0.000000 0.000000 10.000000 
L_front_hand02_02 0.000000 0.000000 0.000000 0.000000 0.000000 0.000000 10.000000 
L_front_hand03_02 0.000000 0.000000 0.000000 0.000000 0.000000 0.000000 10.000000 
R_forearm 0.000000 0.000000 0.000000 0.000000 0.000000 0.000000 10.000000 
R_front_hand 0.000000 0.000000 0.000000 0.000000 0.000000 0.000000 10.000000 
R_weapon_bone 0.000000 0.000000 0.000000 0.000000 0.000000 0.000000 10.000000 
R_front_hand01_01 0.000000 0.000000 0.000000 0.000000 0.000000 0.000000 10.000000 
R_front_hand02_01 0.000000 0.000000 0.000000 0.000000 0.000000 0.000000 10.000000 
R_front_hand03_01 0.000000 0.000000 0.000000 0.000000 0.000000 0.000000 10.000000 
R_front_hand01_02 0.000000 0.000000 0.000000 0.000000 0.000000 0.000000 10.000000 
R_front_hand02_02 0.000000 0.000000 0.000000 0.000000 0.000000 0.000000 10.000000 
R_front_hand03_02 0.000000 0.000000 0.000000 0.000000 0.000000 0.000000 10.000000 
null_rope01_connect 0.000000 0.000000 0.000000 0.000000 0.000000 0.000000 10.000000 
Rope1_Seg01 0.000000 0.000000 0.000000 0.000000 0.000000 0.000000 10.000000 
Rope1_Seg02 0.000000 0.000000 0.000000 0.000000 0.000000 0.000000 10.000000 
Rope1_Seg03 0.000000 0.000000 0.000000 0.000000 0.000000 0.000000 10.000000 
Rope1_Seg04 0.000000 0.000000 0.000000 0.000000 0.000000 0.000000 10.000000 
Rope1_Seg05 0.000000 0.000000 0.000000 0.000000 0.000000 0.000000 10.000000 
Rope1_Seg06 0.000000 0.000000 0.000000 0.000000 0.000000 0.000000 10.000000 
Rope1_Seg07 0.000000 0.000000 0.000000 0.000000 0.000000 0.000000 10.000000 
Rope1_Seg09 0.000000 0.000000 0.000000 0.000000 0.000000 0.000000 10.000000 
L_mid_hand01 0.000000 0.000000 0.000000 0.000000 0.000000 0.000000 10.000000 
L_mid_hand02 0.000000 0.000000 0.000000 0.000000 0.000000 0.000000 10.000000 
L_mid_hand03 0.000000 0.000000 0.000000 0.000000 0.000000 0.000000 10.000000 
null_rope02_connect 0.000000 0.000000 0.000000 0.000000 0.000000 0.000000 10.000000 
Rope2_Seg01 0.000000 0.000000 0.000000 0.000000 0.000000 0.000000 10.000000 
Rope2_Seg02 0.000000 0.000000 0.000000 0.000000 0.000000 0.000000 10.000000 
Rope2_Seg03 0.000000 0.000000 0.000000 0.000000 0.000000 0.000000 10.000000 
Rope2_Seg04 0.000000 0.000000 0.000000 0.000000 0.000000 0.000000 10.000000 
Rope2_Seg05 0.000000 0.000000 0.000000 0.000000 0.000000 0.000000 10.000000 
Rope2_Seg06 0.000000 0.000000 0.000000 0.000000 0.000000 0.000000 10.000000 
Rope2_Seg07 0.000000 0.000000 0.000000 0.000000 0.000000 0.000000 10.000000 
Rope2_Seg09 0.000000 0.000000 0.000000 0.000000 0.000000 0.000000 10.000000 
R_mid_hand01 0.000000 0.000000 0.000000 0.000000 0.000000 0.000000 10.000000 
R_mid_hand02 0.000000 0.000000 0.000000 0.000000 0.000000 0.000000 10.000000 
R_mid_hand03 0.000000 0.000000 0.000000 0.000000 0.000000 0.000000 10.000000 
spine02 0.000000 0.000000 0.000000 0.000000 0.000000 0.000000 10.000000 
spine03 0.000000 0.000000 0.000000 0.000000 0.000000 0.000000 10.000000 
pelvis 0.000000 0.000000 0.000000 0.000000 0.000000 0.000000 10.000000 
null_rope03_connect 0.000000 0.000000 0.000000 0.000000 0.000000 0.000000 10.000000 
null_rope04_connect 0.000000 0.000000 0.000000 0.000000 0.000000 0.000000 10.000000 
Rope3_Seg01 0.000000 0.000000 0.000000 0.000000 0.000000 0.000000 10.000000 
Rope3_Seg02 0.000000 0.000000 0.000000 0.000000 0.000000 0.000000 10.000000 
Rope3_Seg03 0.000000 0.000000 0.000000 0.000000 0.000000 0.000000 10.000000 
Rope3_Seg04 0.000000 0.000000 0.000000 0.000000 0.000000 0.000000 10.000000 
Rope3_Seg05 0.000000 0.000000 0.000000 0.000000 0.000000 0.000000 10.000000 
Rope3_Seg06 0.000000 0.000000 0.000000 0.000000 0.000000 0.000000 10.000000 
Rope3_Seg07 0.000000 0.000000 0.000000 0.000000 0.000000 0.000000 10.000000 
Rope3_Seg08 0.000000 0.000000 0.000000 0.000000 0.000000 0.000000 10.000000 
Rope3_Seg09 0.000000 0.000000 0.000000 0.000000 0.000000 0.000000 10.000000 
R_rear_hand01 0.000000 0.000000 0.000000 0.000000 0.000000 0.000000 10.000000 
R_rear_hand02 0.000000 0.000000 0.000000 0.000000 0.000000 0.000000 10.000000 
R_rear_hand03 0.000000 0.000000 0.000000 0.000000 0.000000 0.000000 10.000000 
Rope4_Seg01 0.000000 0.000000 0.000000 0.000000 0.000000 0.000000 10.000000 
Rope4_Seg02 0.000000 0.000000 0.000000 0.000000 0.000000 0.000000 10.000000 
Rope4_Seg03 0.000000 0.000000 0.000000 0.000000 0.000000 0.000000 10.000000 
Rope4_Seg04 0.000000 0.000000 0.000000 0.000000 0.000000 0.000000 10.000000 
Rope4_Seg05 0.000000 0.000000 0.000000 0.000000 0.000000 0.000000 10.000000 
Rope4_Seg06 0.000000 0.000000 0.000000 0.000000 0.000000 0.000000 10.000000 
Rope4_Seg07 0.000000 0.000000 0.000000 0.000000 0.000000 0.000000 10.000000 
Rope4_Seg08 0.000000 0.000000 0.000000 0.000000 0.000000 0.000000 10.000000 
Rope4_Seg09 0.000000 0.000000 0.000000 0.000000 0.000000 0.000000 10.000000 
L_rear_hand01 0.000000 0.000000 0.000000 0.000000 0.000000 0.000000 10.000000 
L_rear_hand02 0.000000 0.000000 0.000000 0.000000 0.000000 0.000000 10.000000 
L_rear_hand03 0.000000 0.000000 0.000000 0.000000 0.000000 0.000000 10.000000 
#Beginning of Data. Separated by tabs
#Fr	Tx	Ty	Tz	Rx	Ry	Rz	SF
[MASTER]
21 295.631622 3503.681152 1641.156372 0.001660 0.001660 0.001660 3880.280029
22 648.717529 3649.922607 1556.714478 0.001660 0.001660 0.001660 4020.712646
[root]
21 -25.657928 -238.461487 597.386169 -150.881470 -1.749915 -80.528564 643.733215
22 -16.502377 -248.837845 598.074890 -149.377701 -1.506951 -79.638573 647.986267
[chest]
21 -84.512650 -34.090519 0.000000 -57.882065 -28.049763 -162.444260 91.129311
22 -84.512650 -34.090519 0.000000 -58.064827 -29.013746 -164.454575 91.129311
[L_mid_tent01]
21 27.298864 22.179258 -249.918686 -1.528917 25.752863 67.481033 252.381653
22 27.298853 22.179258 -249.918686 -1.491290 26.092169 67.496910 252.381653
[R_mid_tent01]
21 23.228794 24.509907 226.238495 163.631912 19.392368 63.144073 228.744751
22 23.228794 24.509907 226.238495 163.257309 21.271046 64.052696 228.744751
[spine01]
21 -0.361383 -0.195265 0.000000 0.001956 0.001298 22.861124 0.410763
22 -0.361383 -0.195265 0.000000 0.001956 0.001298 22.843462 0.410763
[Bip01_Neck]
21 165.484543 71.581718 0.000119 176.643677 -1.657966 43.431908 180.302734
22 165.484543 71.581718 0.000119 176.643677 -1.657966 43.431908 180.302734
[L_humerus]
21 -13.983130 -135.272980 -120.471481 172.158188 -0.777236 -94.054390 181.680161
22 -13.983130 -135.272980 -120.471481 172.083572 0.708368 -94.955658 181.680161
[R_humerus]
21 -13.983309 -135.273102 125.287651 -177.013596 3.686432 -85.352112 184.909012
22 -13.983309 -135.273102 125.287651 -177.014343 2.678890 -85.399712 184.909012
[weapon_bone]
21 235.964890 -300.705902 0.000000 0.000000 -89.951546 -128.212341 382.234833
22 235.964890 -300.705902 0.000000 0.000000 -89.951546 -128.212341 382.234833
[Bip01_Head]
21 213.339218 186.008606 7.997970 18.223379 6.152122 -43.833603 283.155090
22 213.345490 185.991165 8.222550 18.223381 6.152122 -43.833607 283.154785
[eye_left_bone]
21 -24.626970 125.451866 -64.772606 0.000000 -90.000000 -99.840431 143.318359
22 -24.626970 125.451866 -64.772606 0.000000 -90.000000 -99.840431 143.318359
[eye_right_bone]
21 -24.626970 125.451866 64.327362 0.000000 -89.965736 80.156380 143.117676
22 -24.626970 125.451866 64.327362 0.000000 -89.972023 80.156380 143.117676
[L_forearm]
21 322.776093 0.000000 -0.000119 0.000430 -0.002307 -111.113777 322.776093
22 322.776093 0.000000 -0.000119 0.000429 -0.002308 -111.071800 322.776093
[L_front_hand]
21 241.149185 -0.042021 -3.300071 -178.667953 -1.835447 -27.422342 241.171753
22 241.149185 -0.042021 -3.300071 -178.667953 -1.835447 -27.422342 241.171753
[L_weapon_bone]
21 156.183838 0.000000 0.000000 0.000014 0.000007 0.000001 156.183838
22 156.183838 0.000000 0.000000 0.000014 0.000007 0.000001 156.183838
[L_front_hand01_01]
21 86.095154 20.947098 -0.655860 -0.359433 -0.482613 74.612556 88.609184
22 86.095154 20.947098 -0.655860 -0.365735 -0.477812 75.179466 88.609184
[L_front_hand02_01]
21 86.935165 -11.437475 24.513514 153.214279 -59.547073 -59.995945 91.046425
22 86.935165 -11.437475 24.513514 154.083481 -59.794338 -61.001266 91.046425
[L_front_hand03_01]
21 86.637497 -14.123976 -20.424902 -152.821930 57.770218 -61.413536 90.126129
22 86.637497 -14.123976 -20.424902 -153.626984 58.028236 -62.364826 90.126129
[L_front_hand01_02]
21 71.020905 -0.000179 0.000030 0.000327 -0.002324 -106.024261 71.020905
22 71.020905 -0.000179 0.000030 0.000329 -0.002324 -106.115456 71.020905
[L_front_hand02_02]
21 71.020927 -0.000119 0.000060 0.000327 -0.002324 -106.024261 71.020927
22 71.020927 -0.000119 0.000060 0.000329 -0.002324 -106.115456 71.020927
[L_front_hand03_02]
21 71.020905 -0.000060 0.000060 0.000327 -0.002324 -106.024261 71.020905
22 71.020905 -0.000060 0.000060 0.000329 -0.002324 -106.115456 71.020905
[R_forearm]
21 322.776428 -0.000060 0.000030 0.201107 0.068170 -109.774788 322.776428
22 322.776428 -0.000060 0.000030 0.201137 0.068081 -109.724396 322.776428
[R_front_hand]
21 238.847015 -0.006795 2.210259 -2.635298 -10.645461 -26.312506 238.857239
22 238.847015 -0.006795 2.210259 -2.635298 -10.645461 -26.312506 238.857239
[R_weapon_bone]
21 155.664093 0.002503 -0.000030 0.003487 0.001180 -90.988930 155.664078
22 155.664093 0.002503 -0.000030 0.003487 0.001180 -90.988930 155.664078
[R_front_hand01_01]
21 87.624611 14.231146 22.918642 -154.633499 -59.950619 61.746044 91.683487
22 87.624611 14.231146 22.918642 -154.633514 -59.950626 61.746063 91.683487
[R_front_hand02_01]
21 89.356956 14.367283 -19.491137 154.602676 58.302849 63.744400 92.579636
22 89.356956 14.367283 -19.491137 154.602661 58.302849 63.744389 92.579636
[R_front_hand03_01]
21 87.286232 -22.307278 -0.143439 0.162155 -0.423168 -75.767921 90.091743
22 87.286232 -22.307278 -0.143439 0.162155 -0.423168 -75.767906 90.091743
[R_front_hand01_02]
21 71.020905 0.000060 0.000119 0.002323 -0.000334 106.381714 71.020905
22 71.020905 0.000060 0.000119 0.002323 -0.000334 106.381706 71.020905
[R_front_hand02_02]
21 71.020844 -0.000030 -0.000119 0.002323 -0.000334 106.381714 71.020836
22 71.020844 -0.000030 -0.000119 0.002323 -0.000334 106.381706 71.020836
[R_front_hand03_02]
21 71.020905 0.000000 0.000030 0.002323 -0.000334 106.381714 71.020905
22 71.020905 0.000000 0.000030 0.002323 -0.000334 106.381706 71.020905
[null_rope01_connect]
21 328.732483 0.000000 -0.000238 -170.945770 -6.081481 -150.873215 328.732483
22 328.732483 0.000000 -0.000238 -171.333527 -7.363231 -150.212601 328.732483
[Rope1_Seg01]
21 0.000000 0.000000 0.000000 -8.875235 -9.553981 -147.933273 0.000000
22 0.000000 0.000000 0.000000 12.518108 8.921715 -145.191986 0.000000
[Rope1_Seg02]
21 139.999863 -0.000179 0.000000 0.297749 1.757011 -1.660721 139.999863
22 139.999863 -0.000179 0.000000 -1.596026 0.574917 -2.890300 139.999863
[Rope1_Seg03]
21 139.999924 0.000060 -0.000060 -1.589971 1.240830 -3.053025 139.999924
22 139.999924 0.000060 -0.000060 -1.549994 2.310580 -4.998083 139.999924
[Rope1_Seg04]
21 139.999924 -0.000060 -0.000119 0.360934 2.154642 -1.940605 139.999924
22 139.999924 -0.000060 -0.000119 -1.167462 -1.852022 0.109564 139.999924
[Rope1_Seg05]
21 139.999832 0.000119 -0.000060 10.807959 5.418184 6.405547 139.999832
22 139.999832 0.000119 -0.000060 -0.973255 -5.417715 5.099775 139.999832
[Rope1_Seg06]
21 139.999954 0.000119 -0.000060 6.989594 4.337525 3.455411 139.999954
22 139.999954 0.000119 -0.000060 -0.650178 -2.327421 1.889789 139.999954
[Rope1_Seg07]
21 139.999985 0.000060 0.000000 4.083848 3.016299 1.663749 139.999985
22 139.999985 0.000060 0.000000 -0.479514 -1.536461 1.210031 139.999985
[Rope1_Seg09]
21 121.602913 0.000119 -0.000089 -89.793175 -1.359789 0.847147 121.602913
22 121.602913 0.000119 -0.000089 -89.793175 -1.359789 0.847147 121.602913
[L_mid_hand01]
21 103.859421 1.038730 8.195221 124.908302 -64.325752 -32.698189 104.187431
22 103.859421 1.038730 8.195221 127.696274 -66.076538 -35.766609 104.187431
[L_mid_hand02]
21 105.572853 -4.139662 -10.864139 -165.192154 42.484802 -68.028900 106.211075
22 105.572853 -4.139662 -10.864139 -167.140015 43.006081 -70.902893 106.211075
[L_mid_hand03]
21 104.641464 17.579376 -3.913581 -7.308162 17.330336 70.609482 106.179977
22 104.641464 17.579376 -3.913581 -6.629650 17.597923 72.871559 106.179977
[null_rope02_connect]
21 328.732849 0.000179 -0.000119 -5.147270 3.850895 144.655777 328.732849
22 328.732849 0.000179 -0.000119 -5.376837 3.524304 144.964615 328.732849
[Rope2_Seg01]
21 0.000055 0.000086 0.000000 -52.717243 20.980732 -147.949875 0.000102
22 0.000056 0.000083 0.000000 -44.795937 -7.838633 -146.831863 0.000100
[Rope2_Seg02]
21 139.999741 -0.000060 -0.000119 7.660931 -26.030649 -14.428017 139.999756
22 139.999741 -0.000060 -0.000119 0.240186 -14.575390 0.903292 139.999756
[Rope2_Seg03]
21 140.000107 0.000030 0.000000 -0.190583 -16.269806 -6.769642 140.000107
22 140.000107 0.000030 0.000000 -0.685983 -11.757667 1.414723 140.000107
[Rope2_Seg04]
21 139.999802 0.000000 -0.000060 -0.418415 -1.932897 -1.490099 139.999802
22 139.999802 0.000000 -0.000060 -0.214815 -0.143491 -0.913037 139.999802
[Rope2_Seg05]
21 139.999985 -0.000060 0.000119 0.163191 1.885762 0.197264 139.999985
22 139.999985 -0.000060 0.000119 0.013118 4.543516 -1.457975 139.999985
[Rope2_Seg06]
21 139.999893 -0.000030 -0.000119 -0.106984 -0.062916 -0.295026 139.999893
22 139.999893 -0.000030 -0.000119 -0.049774 1.396143 -0.567747 139.999893
[Rope2_Seg07]
21 139.999893 0.000060 -0.000060 -0.092150 -0.087540 -0.210934 139.999893
22 139.999893 0.000060 -0.000060 -0.054741 0.703796 -0.325097 139.999893
[Rope2_Seg09]
21 121.338966 0.000089 -0.000060 33.793236 -1.359788 -0.847141 121.338966
22 121.338966 0.000089 -0.000060 33.793236 -1.359788 -0.847141 121.338966
[R_mid_hand01]
21 104.680779 11.144459 -10.335981 -29.839338 38.782539 50.244713 105.778534
22 104.680779 11.144459 -10.335981 -26.991898 40.639954 54.704464 105.778534
[R_mid_hand02]
21 104.070427 2.443552 8.231699 65.096077 -53.911812 21.097551 104.424065
22 104.070427 2.443552 8.231699 62.577366 -57.416584 24.150801 104.424065
[R_mid_hand03]
21 106.028137 -11.221827 -5.996406 -172.771393 14.103961 -59.790848 106.788818
22 106.028137 -11.221827 -5.996406 -173.762711 14.561014 -63.787167 106.788818
[spine02]
21 129.756927 0.001550 0.000119 0.531653 -4.024712 -15.369507 129.756927
22 129.756927 0.001550 0.000119 0.527908 -4.025207 -15.309451 129.756927
[spine03]
21 78.614037 0.081740 -4.898999 1.999055 3.782420 18.007259 78.766571
22 78.614037 0.081740 -4.898999 1.995770 3.783552 17.957069 78.766571
[pelvis]
21 169.435242 0.051022 0.000000 1.880630 -0.205315 -9.747880 169.435257
22 169.435242 0.051022 0.000000 0.019525 -0.190233 -10.721431 169.435257
[null_rope03_connect]
21 -1.257226 -2.466202 137.391083 176.554123 -32.137615 -94.946068 137.418976
22 -1.257226 -2.466202 137.391083 175.273026 -31.639847 -92.686783 137.418976
[null_rope04_connect]
21 -1.259640 -2.480268 -137.844437 176.554123 -32.137615 -94.946068 137.872513
22 -1.259640 -2.480268 -137.844437 175.273026 -31.639847 -92.686783 137.872513
[Rope3_Seg01]
21 0.000000 0.000000 0.000000 20.070129 -9.569438 -114.507050 0.000000
22 0.000000 0.000000 0.000000 21.395277 -11.219247 -124.756195 0.000000
[Rope3_Seg02]
21 139.999924 -0.000119 0.000060 -5.328718 0.446351 -9.640500 139.999924
22 139.999924 -0.000119 0.000060 0.148227 -1.904347 -2.865075 139.999924
[Rope3_Seg03]
21 139.999924 -0.000119 0.000119 -6.299063 4.270182 -4.328458 139.999924
22 139.999924 -0.000119 0.000119 -0.443689 0.446578 -0.054488 139.999924
[Rope3_Seg04]
21 139.999924 0.000119 0.000000 -2.130910 -1.829625 -6.037325 139.999924
22 139.999924 0.000119 0.000000 -0.013013 -1.358902 -2.100382 139.999924
[Rope3_Seg05]
21 139.999924 -0.000238 0.000060 3.114008 -5.996995 -6.377207 139.999924
22 139.999924 -0.000238 0.000060 3.756307 -7.789391 -9.389824 139.999924
[Rope3_Seg06]
21 139.999893 -0.000119 -0.000060 2.209862 -2.920702 -2.944739 139.999893
22 139.999893 -0.000119 -0.000060 4.145885 -4.578376 -4.875645 139.999893
[Rope3_Seg07]
21 139.999771 0.000060 -0.000119 1.334582 -1.522392 -1.658352 139.999771
22 139.999771 0.000060 -0.000119 3.139352 -2.217772 -2.078201 139.999771
[Rope3_Seg08]
21 139.999985 -0.000060 0.000000 1.127907 -0.962872 -1.001998 139.999985
22 139.999985 -0.000060 0.000000 2.672244 -1.390983 -1.168702 139.999985
[Rope3_Seg09]
21 90.185997 -0.000179 -0.000060 89.793228 -1.359877 -0.847183 90.185997
22 90.185997 -0.000179 -0.000060 89.793228 -1.359877 -0.847183 90.185997
[R_rear_hand01]
21 103.366196 -6.073594 -10.757982 -170.781677 22.979736 -56.828247 104.101845
22 103.366196 -6.073594 -10.757982 -172.436630 23.546103 -61.016514 104.101845
[R_rear_hand02]
21 100.509819 12.039542 -7.992327 -23.183132 31.959562 54.045338 101.543350
22 100.509819 12.039542 -7.992327 -20.870390 33.419476 58.329945 101.543350
[R_rear_hand03]
21 101.539970 5.215704 5.435467 79.633011 -56.564823 12.543674 101.819031
22 101.539970 5.215704 5.435467 78.426208 -60.383141 13.958279 101.819031
[Rope4_Seg01]
21 0.000010 0.000022 -0.000086 -90.980774 -23.666702 -123.611824 0.000089
22 0.000010 0.000021 -0.000083 -93.757210 -15.765757 -120.773674 0.000086
[Rope4_Seg02]
21 139.999985 0.000060 0.000119 0.534629 12.280053 6.429534 139.999985
22 139.999985 0.000060 0.000119 0.887422 15.064983 7.632672 139.999985
[Rope4_Seg03]
21 139.999924 0.000000 -0.000238 -0.125188 9.530591 5.566693 139.999924
22 139.999924 0.000000 -0.000238 -1.710305 10.817056 8.687205 139.999924
[Rope4_Seg04]
21 139.999985 0.000000 0.000119 -0.029744 5.312513 2.738449 139.999985
22 139.999985 0.000000 0.000119 1.170439 4.430101 0.913136 139.999985
[Rope4_Seg05]
21 139.999802 -0.000060 -0.000119 1.316213 -0.566751 -1.760753 139.999802
22 139.999802 -0.000060 -0.000119 6.330471 -1.267104 -7.657808 139.999802
[Rope4_Seg06]
21 139.999924 0.000000 0.000060 1.107358 -1.355245 -1.891080 139.999924
22 139.999924 0.000000 0.000060 3.845820 -2.052878 -5.805851 139.999924
[Rope4_Seg07]
21 139.999802 0.000000 0.000000 0.555991 -0.079522 -0.597152 139.999802
22 139.999802 0.000000 0.000000 1.677464 -0.619586 -2.510427 139.999802
[Rope4_Seg08]
21 139.999924 0.000000 0.000119 -1.185147 -0.056711 -0.383531 139.999924
22 139.999924 0.000000 0.000119 -0.536329 -0.441020 -1.583920 139.999924
[Rope4_Seg09]
21 90.185791 0.000060 0.000060 -135.617828 2.228885 0.850567 90.185791
22 90.185791 0.000060 0.000060 -135.617828 2.228885 0.850567 90.185791
[L_rear_hand01]
21 101.696655 -8.392275 -7.654577 -16.229397 -35.681812 113.503830 102.329041
22 101.696655 -8.392275 -7.654577 -14.875789 -36.204914 111.195381 102.329041
[L_rear_hand02]
21 102.726799 -1.568258 5.773216 75.121277 67.292404 162.363388 102.900848
22 102.726799 -1.568258 5.773216 73.822197 69.166573 160.967667 102.900848
[L_rear_hand03]
21 104.552910 9.721220 -10.420293 -175.569016 -24.291676 -111.264969 105.519653
22 104.552910 9.721220 -10.420293 -176.448364 -24.423323 -109.138077 105.519653
